# xmcd
#
# Track frame offsets: 
#        150
#        14068
#        26443
#        39080
#        51510
#        65050
#        79823
#        95225
#        109758
#        122903
#        136485
#        148563
#        161770
#        172895
#        185748
#        198725
#        213213
#        223130
#        234430
#        247355
#        259588
#        272808
#        283570
#        298115
#
# Disc length: 4170 seconds
#
# Revision: 6
# Processed by: cddbd v1.5.2PL0 Copyright (c) Steve Scherf et al.
# Submitted via: ExactAudioCopy v1.0b1
#
DISCID=82104818
DTITLE=Django Reinhardt - Vol. 002 - Djangology - The Gipsy Genius
DYEAR=1940
DGENRE=Jazz
TTITLE0=After You've Gone
TTITLE1=Limehouse Blues
TTITLE2=Nagasaki
TTITLE3=Honeysuckle Rose
TTITLE4=Crazy Rhythm
TTITLE5=Out Of Nowhere
TTITLE6=Chicago
TTITLE7=Georgia On My Mind
TTITLE8=Shine
TTITLE9=Sweet Georgia Brown
TTITLE10=Bugle Call Rag
TTITLE11=Between The Devil And The Deep Blue Sea
TTITLE12=Exactly Like You
TTITLE13=Charleston
TTITLE14=You're Driving Me Crazy
TTITLE15=Farewell Blues
TTITLE16=I Got Rhythm
TTITLE17=I Know That You Know
TTITLE18=Ain't Misbehavin'
TTITLE19=Rose Room
TTITLE20=Japanese Sandman
TTITLE21=Swing Guitars
TTITLE22=Minor Swing
TTITLE23=Nuages
EXTD=YEAR: 1940
EXTT0=
EXTT1=
EXTT2=
EXTT3=
EXTT4=
EXTT5=
EXTT6=
EXTT7=
EXTT8=
EXTT9=
EXTT10=
EXTT11=
EXTT12=
EXTT13=
EXTT14=
EXTT15=
EXTT16=
EXTT17=
EXTT18=
EXTT19=
EXTT20=
EXTT21=
EXTT22=
EXTT23=
PLAYORDER=
